<svg width="177" height="60" xmlns="http://www.w3.org/2000/svg"><g fill="none" fill-rule="evenodd"><rect fill="#000" width="177" height="60" rx="12"/><path d="M68.55 43.868h-3.013l-1.65-5.184h-5.738l-1.572 5.184h-2.933l5.684-17.65h3.51l5.712 17.65zm-5.161-7.36h-4.74l1.465-4.608c.385-1.466.665-2.575.839-3.325h.053c.436 1.745.732 2.854.89 3.325l1.493 4.609zm19.777.84c0 2.165-.585 3.876-1.755 5.132-1.048 1.118-2.35 1.676-3.903 1.676-1.677 0-2.882-.602-3.616-1.806h-.053v6.704h-2.828V35.331c0-1.36-.036-2.757-.105-4.19h2.488l.157 2.017h.053c.944-1.52 2.375-2.278 4.296-2.278 1.502 0 2.756.593 3.759 1.78 1.006 1.188 1.507 2.75 1.507 4.688zm-2.882.104c0-1.239-.278-2.26-.838-3.064-.612-.838-1.433-1.257-2.462-1.257-.698 0-1.332.233-1.899.693-.568.464-.94 1.07-1.113 1.821-.088.35-.131.637-.131.862v2.123c0 .925.284 1.706.851 2.344.568.638 1.306.957 2.213.957 1.066 0 1.895-.411 2.488-1.231.594-.821.891-1.903.891-3.248zm17.525-.104c0 2.165-.585 3.876-1.756 5.132-1.047 1.118-2.349 1.676-3.902 1.676-1.677 0-2.882-.602-3.614-1.806h-.053v6.704h-2.829V35.331c0-1.36-.036-2.757-.105-4.19h2.488l.158 2.017h.053c.942-1.52 2.373-2.278 4.296-2.278 1.5 0 2.754.593 3.76 1.78 1.001 1.188 1.504 2.75 1.504 4.688zm-2.882.104c0-1.239-.28-2.26-.84-3.064-.61-.838-1.43-1.257-2.46-1.257-.7 0-1.332.233-1.9.693-.568.464-.938 1.07-1.112 1.821-.086.35-.131.637-.131.862v2.123c0 .925.284 1.706.849 2.344.568.637 1.305.957 2.215.957 1.066 0 1.895-.411 2.488-1.231.594-.821.891-1.903.891-3.248zm19.254 1.467c0 1.501-.522 2.723-1.568 3.666-1.15 1.03-2.752 1.545-4.81 1.545-1.9 0-3.423-.366-4.576-1.1l.656-2.357a7.756 7.756 0 0 0 4.089 1.128c1.065 0 1.894-.242 2.49-.722.593-.48.889-1.124.889-1.928 0-.716-.244-1.32-.734-1.81-.487-.489-1.3-.944-2.436-1.364-3.09-1.153-4.635-2.841-4.635-5.061 0-1.451.541-2.641 1.625-3.567 1.08-.927 2.52-1.39 4.323-1.39 1.606 0 2.94.28 4.006.838l-.707 2.306c-.995-.542-2.12-.812-3.38-.812-.994 0-1.772.245-2.329.733-.47.437-.707.969-.707 1.599 0 .697.27 1.274.81 1.728.472.419 1.327.872 2.57 1.362 1.518.611 2.634 1.326 3.352 2.146.715.817 1.072 1.84 1.072 3.06zm9.352-5.656h-3.118v6.18c0 1.571.55 2.356 1.65 2.356.506 0 .925-.043 1.257-.13l.078 2.146c-.557.209-1.29.313-2.2.313-1.117 0-1.99-.34-2.62-1.02-.627-.683-.943-1.826-.943-3.432v-6.415h-1.857v-2.123h1.857v-2.33l2.778-.838v3.168h3.118v2.125zM137.6 37.4c0 1.956-.56 3.563-1.677 4.819-1.171 1.293-2.726 1.937-4.665 1.937-1.868 0-3.355-.62-4.464-1.858-1.11-1.239-1.664-2.802-1.664-4.687 0-1.972.57-3.588 1.716-4.844 1.142-1.257 2.684-1.886 4.622-1.886 1.868 0 3.371.62 4.506 1.86 1.085 1.203 1.626 2.756 1.626 4.659zm-2.935.092c0-1.174-.25-2.18-.758-3.02-.594-1.016-1.441-1.523-2.54-1.523-1.137 0-2 .508-2.594 1.523-.508.84-.758 1.863-.758 3.073 0 1.173.25 2.18.758 3.018.612 1.016 1.466 1.523 2.569 1.523 1.08 0 1.928-.517 2.54-1.55.52-.855.783-1.872.783-3.044zm12.13-3.864a4.913 4.913 0 0 0-.892-.078c-.995 0-1.765.375-2.306 1.127-.471.663-.707 1.501-.707 2.513v6.678h-2.828l.027-8.719c0-1.467-.036-2.802-.106-4.007h2.464l.103 2.436h.078c.299-.837.77-1.511 1.415-2.016.63-.455 1.31-.682 2.044-.682.261 0 .498.018.707.052v2.696zm12.65 3.275c0 .506-.034.933-.104 1.282h-8.486c.034 1.258.443 2.22 1.232 2.882.715.593 1.64.89 2.775.89 1.256 0 2.403-.2 3.434-.602l.443 1.963c-1.205.525-2.627.787-4.268.787-1.974 0-3.524-.581-4.652-1.742-1.125-1.16-1.689-2.719-1.689-4.674 0-1.919.524-3.517 1.574-4.792 1.098-1.36 2.583-2.041 4.45-2.041 1.836 0 3.225.68 4.168 2.041.747 1.081 1.123 2.418 1.123 4.006zm-2.698-.734c.019-.838-.166-1.562-.549-2.174-.49-.786-1.242-1.179-2.254-1.179-.925 0-1.677.384-2.251 1.153-.471.611-.751 1.345-.838 2.199h5.892v.001zM62.453 15.36c0 1.56-.468 2.735-1.403 3.525-.867.728-2.098 1.093-3.693 1.093-.79 0-1.467-.035-2.033-.104v-8.53c.739-.119 1.535-.18 2.394-.18 1.52 0 2.664.33 3.437.99.865.748 1.298 1.815 1.298 3.205zm-1.466.038c0-1.012-.268-1.788-.804-2.33-.536-.54-1.318-.81-2.35-.81-.437 0-.81.03-1.119.09v6.485c.171.026.484.038.94.038 1.063 0 1.885-.295 2.463-.887.578-.591.87-1.454.87-2.586zm9.24 1.325c0 .961-.275 1.75-.824 2.367-.576.636-1.339.953-2.292.953-.918 0-1.649-.304-2.194-.914-.544-.61-.816-1.377-.816-2.303 0-.968.28-1.762.843-2.38.562-.616 1.318-.925 2.271-.925.918 0 1.656.304 2.214.913.531.591.798 1.355.798 2.289zm-1.443.045c0-.577-.124-1.072-.372-1.484-.292-.499-.707-.748-1.247-.748-.559 0-.984.249-1.275.748-.25.412-.373.915-.373 1.51 0 .576.124 1.07.373 1.483.3.499.72.748 1.261.748.531 0 .948-.253 1.247-.761.258-.42.386-.92.386-1.496zm11.865-3.12l-1.957 6.253H77.42l-.81-2.715a20.314 20.314 0 0 1-.504-2.02h-.025c-.12.687-.288 1.36-.503 2.02l-.86 2.715h-1.289l-1.84-6.253h1.429l.707 2.973c.171.703.312 1.372.424 2.006h.026c.103-.522.274-1.188.516-1.993l.887-2.984h1.133l.85 2.92c.206.712.374 1.398.502 2.059h.039c.094-.644.236-1.33.424-2.059l.76-2.92h1.364v-.002zm7.208 6.253h-1.39V16.32c0-1.104-.42-1.656-1.26-1.656-.413 0-.746.152-1.005.455a1.614 1.614 0 0 0-.386 1.072v3.708h-1.39v-4.464c0-.55-.017-1.145-.05-1.79h1.221l.065.978h.039c.162-.304.403-.554.72-.754a2.35 2.35 0 0 1 1.26-.352c.584 0 1.07.188 1.456.566.48.463.72 1.154.72 2.072v3.746zm2.446-9.121h1.389v9.12h-1.39v-9.12zm9.574 5.943c0 .961-.274 1.75-.823 2.367-.576.636-1.34.953-2.292.953-.92 0-1.65-.304-2.194-.914-.544-.61-.816-1.377-.816-2.303 0-.968.28-1.762.842-2.38.563-.616 1.32-.925 2.27-.925.92 0 1.656.304 2.216.913.53.591.797 1.355.797 2.289zm-1.443.045c0-.577-.125-1.072-.373-1.484-.29-.499-.707-.748-1.246-.748-.56 0-.984.249-1.275.748-.249.412-.372.915-.372 1.51 0 .576.124 1.07.372 1.483.302.499.72.748 1.262.748.53 0 .946-.253 1.246-.761.259-.42.386-.92.386-1.496zm8.173 3.133h-1.249l-.103-.72h-.039c-.427.574-1.036.862-1.827.862-.59 0-1.068-.19-1.427-.567-.327-.342-.49-.768-.49-1.273 0-.764.319-1.346.96-1.75.639-.403 1.538-.6 2.697-.591v-.117c0-.823-.433-1.235-1.3-1.235-.616 0-1.16.156-1.63.463l-.282-.912c.58-.36 1.299-.54 2.145-.54 1.634 0 2.454.862 2.454 2.586v2.303c0 .625.03 1.122.09 1.49zm-1.444-2.149v-.964c-1.534-.027-2.3.394-2.3 1.26 0 .326.087.57.266.733.18.163.408.244.68.244.305 0 .59-.097.85-.289a1.184 1.184 0 0 0 .504-.984zm9.344 2.149h-1.234l-.065-1.004h-.038c-.394.764-1.065 1.146-2.009 1.146-.753 0-1.38-.296-1.878-.888-.498-.591-.746-1.36-.746-2.302 0-1.012.27-1.832.81-2.458.525-.584 1.167-.875 1.931-.875.84 0 1.428.282 1.762.849h.026v-3.59h1.392v7.437c0 .609.016 1.17.05 1.685zm-1.44-2.637V16.22c0-.18-.014-.326-.04-.437a1.583 1.583 0 0 0-.502-.842 1.367 1.367 0 0 0-.93-.341c-.519 0-.925.205-1.223.618-.296.412-.446.939-.446 1.582 0 .618.142 1.12.427 1.505a1.43 1.43 0 0 0 1.216.617c.456 0 .82-.171 1.098-.514.268-.317.4-.7.4-1.145zm13.332-.541c0 .961-.275 1.75-.824 2.367-.576.636-1.338.953-2.292.953-.916 0-1.647-.304-2.194-.914-.544-.61-.816-1.377-.816-2.303 0-.968.28-1.762.843-2.38.562-.616 1.318-.925 2.272-.925.917 0 1.656.304 2.213.913.53.591.798 1.355.798 2.289zm-1.441.045c0-.577-.125-1.072-.373-1.484-.293-.499-.707-.748-1.248-.748-.558 0-.982.249-1.275.748-.25.412-.373.915-.373 1.51 0 .576.124 1.07.373 1.483.3.499.72.748 1.261.748.531 0 .949-.253 1.249-.761.256-.42.386-.92.386-1.496zm8.917 3.133h-1.39V16.32c0-1.104-.419-1.656-1.261-1.656a1.25 1.25 0 0 0-1.003.455 1.607 1.607 0 0 0-.386 1.072v3.708h-1.392v-4.464c0-.55-.016-1.145-.049-1.79h1.22l.066.978h.038c.163-.304.405-.554.72-.754a2.355 2.355 0 0 1 1.262-.352c.583 0 1.068.188 1.454.566.482.463.72 1.154.72 2.072v3.746zm9.357-5.211h-1.531v3.037c0 .772.272 1.158.81 1.158.25 0 .457-.022.62-.065l.036 1.054c-.275.104-.635.155-1.08.155-.55 0-.976-.167-1.286-.501-.31-.334-.464-.897-.464-1.686V14.69h-.914v-1.042h.914v-1.146l1.363-.41v1.555h1.53v1.043h.002zm7.36 5.21h-1.391v-3.554c0-1.12-.42-1.682-1.26-1.682-.644 0-1.084.325-1.326.975a1.746 1.746 0 0 0-.065.5v3.76h-1.389v-9.12h1.39v3.769h.026c.437-.686 1.065-1.028 1.878-1.028.576 0 1.052.188 1.43.566.472.47.708 1.171.708 2.097V19.9zm7.593-3.421c0 .25-.018.459-.051.63h-4.17c.018.618.217 1.089.604 1.415.352.292.807.438 1.365.438.617 0 1.18-.099 1.686-.296l.218.965c-.593.258-1.291.386-2.1.386-.968 0-1.73-.285-2.283-.855-.554-.57-.829-1.336-.829-2.296 0-.943.256-1.728.772-2.354.539-.669 1.267-1.003 2.187-1.003.9 0 1.583.334 2.044 1.003.373.53.557 1.187.557 1.967zm-1.326-.36c.01-.412-.081-.768-.27-1.067-.241-.386-.609-.58-1.106-.58-.454 0-.824.188-1.107.566-.23.301-.367.66-.412 1.081h2.895zM36.972 28.874c.044 5.164 4.521 6.871 4.576 6.89-.026.12-.7 2.464-2.38 4.844-1.402 2.094-2.872 4.142-5.205 4.18-2.267.052-3.03-1.333-5.63-1.333-2.623 0-3.435 1.295-5.61 1.385-2.222.082-3.92-2.237-5.373-4.313-2.905-4.239-5.167-11.946-2.135-17.19 1.47-2.572 4.148-4.229 7.012-4.273 2.225-.045 4.29 1.501 5.657 1.501 1.34 0 3.894-1.85 6.526-1.573 1.101.032 4.235.434 6.256 3.38-.163.097-3.733 2.193-3.694 6.502zm-4.282-12.67c-1.22 1.438-3.172 2.538-5.074 2.396-.248-1.94.715-4.005 1.793-5.264 1.22-1.43 3.336-2.524 5.029-2.6.222 2.018-.578 4.006-1.748 5.467z" fill="#FFF"/></g></svg>