<svg width="30" height="108" xmlns="http://www.w3.org/2000/svg"><path d="M28.288 24.84a91.203 91.203 0 0 1 1.116 25.563 88.971 88.971 0 0 1-2.215 12.688 81.862 81.862 0 0 1-4.156 12.218C19.63 83.213 14.89 90.617 8.756 96.62a.689.689 0 0 1-1.046-.889c4.832-6.898 9.052-14.07 12.36-21.702a98.39 98.39 0 0 0 4.22-11.726 89.741 89.741 0 0 0 2.682-12.2c1.245-8.252 1.293-16.735-.099-25.011-1.387-8.265-4.124-16.35-8.353-23.596a.686.686 0 0 1 1.185-.692 80.49 80.49 0 0 1 8.583 24.035zm-15.017 75.873a35.723 35.723 0 0 0-3.841 1.68 36.197 36.197 0 0 0-3.61 2.117 47.333 47.333 0 0 0-3.342 2.488 1.243 1.243 0 0 1-2.025-.943l-.004-.202-.063-3.764C.37 100.837.379 99.587.38 98.336c.007-1.25.064-2.5.179-3.754.123-1.256.282-2.513.616-3.787a.717.717 0 0 1 1.37-.061c.449 1.252.685 2.522.855 3.796a28.21 28.21 0 0 1 .218 3.831 58.78 58.78 0 0 1-.163 3.832 64.486 64.486 0 0 1-.418 3.814l-2.029-1.145a51.867 51.867 0 0 1 3.86-2.023 80.632 80.632 0 0 1 7.968-3.322c1.353-.48 2.722-.91 4.094-1.34a.688.688 0 0 1 .41 1.313l-.056.014a30.96 30.96 0 0 0-4.014 1.21z" fill="#FFF" fill-rule="evenodd"/></svg>