<svg width="109" height="22" xmlns="http://www.w3.org/2000/svg"><path d="M22.864 15.725a92.105 92.105 0 0 0 25.08 5.61 89.74 89.74 0 0 0 12.922.06 82.173 82.173 0 0 0 12.79-1.934c8.397-1.954 16.528-5.313 23.513-10.29.31-.22.38-.65.157-.96a.698.698 0 0 0-.856-.226c-7.647 3.538-15.46 6.426-23.572 8.334a98.73 98.73 0 0 1-12.314 2.083 90.274 90.274 0 0 1-12.52.487c-8.371-.232-16.765-1.682-24.708-4.513C15.424 11.552 7.9 7.431 1.462 1.99a.685.685 0 0 0-.887 1.044 81.431 81.431 0 0 0 22.29 12.69zm77.578-1.387a35.422 35.422 0 0 1 2.32-3.484 35.913 35.913 0 0 1 2.71-3.179 47.01 47.01 0 0 1 3.032-2.85 1.238 1.238 0 0 0 .118-1.753 1.253 1.253 0 0 0-.703-.407l-.2-.04-3.71-.726c-1.235-.237-2.472-.449-3.708-.667a43.994 43.994 0 0 0-3.743-.487c-1.262-.1-2.532-.166-3.849-.062a.713.713 0 0 0-.658.771c.02.244.166.452.363.567 1.161.662 2.376 1.119 3.606 1.51a28.34 28.34 0 0 0 3.75.892c1.268.208 2.539.39 3.816.516 1.277.128 2.56.21 3.843.262l-.785-2.2a51.445 51.445 0 0 0-2.662 3.443 79.945 79.945 0 0 0-4.649 7.256 112.957 112.957 0 0 0-2.024 3.792.69.69 0 0 0 .298.926.688.688 0 0 0 .928-.291l.024-.053a30.7 30.7 0 0 1 1.883-3.736z" fill="#4695ED" fill-rule="evenodd"/></svg>