<svg width="76" height="80" xmlns="http://www.w3.org/2000/svg"><path d="M68.934 25.583A89.975 89.975 0 0 1 55.436 46.82a87.616 87.616 0 0 1-8.921 8.982 80.483 80.483 0 0 1-10.215 7.51c-7.181 4.455-15.154 7.753-23.456 9.137a.674.674 0 0 1-.777-.557.682.682 0 0 1 .438-.75c7.761-2.838 15.187-6.243 22.138-10.532a96.714 96.714 0 0 0 9.989-7.077 88.337 88.337 0 0 0 9.022-8.325c5.645-5.952 10.46-12.764 14.002-20.22 3.54-7.445 5.896-15.506 6.583-23.73a.672.672 0 1 1 1.34.11 79.487 79.487 0 0 1-6.645 24.214zM14.163 78.294a34.878 34.878 0 0 0-4.03-.81 35.354 35.354 0 0 0-4.087-.327 46.256 46.256 0 0 0-4.083.124 1.223 1.223 0 1 1-1.094-1.902l.11-.165 2.068-3.07c.693-1.019 1.404-2.022 2.11-3.028a42.997 42.997 0 0 1 2.257-2.927c.806-.943 1.641-1.867 2.627-2.706a.701.701 0 0 1 .992.08c.155.182.2.427.142.643-.346 1.262-.87 2.42-1.452 3.542a27.832 27.832 0 0 1-1.982 3.212 57.953 57.953 0 0 1-2.288 2.997 63.55 63.55 0 0 1-2.483 2.84l-.983-2.067a50.65 50.65 0 0 1 4.236.544 78.722 78.722 0 0 1 8.265 1.81c1.355.377 2.697.8 4.039 1.228a.676.676 0 0 1-.41 1.288l-.053-.02a30.229 30.229 0 0 0-3.901-1.286z" fill="#F65500" fill-rule="evenodd"/></svg>