<svg width="30" height="108" xmlns="http://www.w3.org/2000/svg"><path d="M1.528 24.934A91.203 91.203 0 0 0 .412 50.498a88.971 88.971 0 0 0 2.215 12.688 81.862 81.862 0 0 0 4.156 12.218c3.403 7.905 8.144 15.308 14.278 21.311a.689.689 0 0 0 1.045-.889c-4.831-6.898-9.052-14.07-12.36-21.702a98.39 98.39 0 0 1-4.22-11.726 89.741 89.741 0 0 1-2.682-12.2c-1.245-8.252-1.292-16.735.1-25.011C4.33 16.922 7.067 8.837 11.295 1.59A.686.686 0 0 0 10.112.9a80.49 80.49 0 0 0-8.584 24.034zm15.017 75.874a35.723 35.723 0 0 1 3.841 1.68 36.197 36.197 0 0 1 3.61 2.117 47.334 47.334 0 0 1 3.342 2.488 1.243 1.243 0 0 0 2.025-.943l.004-.202.064-3.764c.015-1.252.006-2.502.004-3.753-.006-1.25-.063-2.5-.178-3.754-.124-1.256-.282-2.513-.617-3.787a.717.717 0 0 0-1.37-.061c-.448 1.252-.685 2.522-.854 3.796a28.209 28.209 0 0 0-.219 3.831 58.78 58.78 0 0 0 .163 3.832c.099 1.275.243 2.547.418 3.814l2.029-1.145a51.867 51.867 0 0 0-3.86-2.023 80.631 80.631 0 0 0-7.968-3.322c-1.353-.48-2.722-.91-4.094-1.34a.688.688 0 0 0-.41 1.313l.057.014a30.96 30.96 0 0 1 4.013 1.21z" fill="#FFF" fill-rule="evenodd"/></svg>