<svg width="80" height="76" xmlns="http://www.w3.org/2000/svg"><path d="M25.083 7.566A89.975 89.975 0 0 1 46.32 21.064a87.617 87.617 0 0 1 8.982 8.921 80.484 80.484 0 0 1 7.51 10.215c4.455 7.181 7.753 15.154 9.137 23.456a.674.674 0 0 1-.557.777.682.682 0 0 1-.75-.438c-2.838-7.761-6.243-15.187-10.532-22.138a96.714 96.714 0 0 0-7.077-9.989 88.336 88.336 0 0 0-8.325-9.022c-5.952-5.645-12.764-10.46-20.22-14.002C17.044 5.304 8.983 2.948.759 2.26A.672.672 0 1 1 .87.921a79.487 79.487 0 0 1 24.214 6.645zm52.711 54.771a34.878 34.878 0 0 0-.81 4.03 35.353 35.353 0 0 0-.327 4.087 46.256 46.256 0 0 0 .124 4.083 1.223 1.223 0 1 1-1.902 1.094l-.165-.11-3.07-2.068c-1.019-.693-2.022-1.404-3.029-2.11a42.997 42.997 0 0 1-2.926-2.257c-.943-.806-1.867-1.641-2.706-2.627a.701.701 0 0 1 .08-.992.715.715 0 0 1 .643-.142c1.262.346 2.42.87 3.542 1.452a27.832 27.832 0 0 1 3.212 1.982 58.37 58.37 0 0 1 2.997 2.288c.972.797 1.916 1.63 2.84 2.483l-2.067.983a50.65 50.65 0 0 1 .544-4.236 78.722 78.722 0 0 1 1.81-8.265c.377-1.355.8-2.697 1.228-4.039a.676.676 0 0 1 1.288.41l-.02.053a30.228 30.228 0 0 0-1.286 3.901z" fill="#F65500" fill-rule="evenodd"/></svg>