<svg width="11" height="14" xmlns="http://www.w3.org/2000/svg"><path d="M9.808 10.007L7.523 8.893a.612.612 0 0 1-.35-.552v-.789a5.261 5.261 0 0 0 .879-1.575.925.925 0 0 0 .557-.844V4.2a.918.918 0 0 0-.24-.612V2.346c.014-.128.067-.892-.5-1.522C7.38.277 6.581 0 5.5 0 4.419 0 3.622.277 3.13.824c-.566.63-.513 1.394-.5 1.522v1.242a.918.918 0 0 0-.239.612v.933a.92.92 0 0 0 .358.726c.22.846.678 1.484.838 1.688v.772a.614.614 0 0 1-.33.542L1.125 9.996A2.097 2.097 0 0 0 0 11.844v.756C0 13.707 3.598 14 5.5 14c1.902 0 5.5-.293 5.5-1.4v-.71a2.09 2.09 0 0 0-1.192-1.883z" fill="#FFF" opacity=".25"/></svg>