<svg xmlns="http://www.w3.org/2000/svg" width="80" height="80" viewBox="0 0 61.039 61.039"><linearGradient id="a" gradientUnits="userSpaceOnUse" x1="-280.006" y1="801.73" x2="-280.006" y2="814.957" gradientTransform="translate(1322.637 -3699.661) scale(4.6146)"><stop offset="0" stop-color="#5d73a9"/><stop offset="1" stop-color="#3b4f81"/></linearGradient><path fill="url(#a)" d="M4.495 0h52.049c2.46 0 4.495 2.035 4.495 4.495v52.049c0 2.46-2.035 4.495-4.495 4.495H4.495C2.035 61.039 0 59.004 0 56.544V4.495C0 2.035 2.035 0 4.495 0z"/><path opacity=".25" fill="#FFF" d="M47.791 61.039h-8.754L18.501 0h4.968l24.322 61.039zm-14.101 0h-9.7L12.255 0h5.062L33.69 61.039zM6.435 0h4.685l7.76 61.039H10.6L6.435 0z"/><path fill="#FFF" d="M33.595 21.766v19.731l5.678 1.704v6.387l-5.678-1.703v13.154h-6.151v-15l-5.678-1.703v-6.388l5.678 1.704V21.766H11.356v-6.151h16.088V0h6.151v15.615h16.088v6.151H33.595z"/></svg>