<svg width="13" height="20" xmlns="http://www.w3.org/2000/svg"><path d="M6.244 10.823A5.412 5.412 0 1 0 .833 5.412a5.418 5.418 0 0 0 5.411 5.411zm0-8.325a2.914 2.914 0 1 1 0 5.828 2.914 2.914 0 0 1 0-5.828zm5.301 10.89c-.753.5-1.574.892-2.437 1.163-.147.045-.3.087-.455.127l2.512 2.458.04.04a1.665 1.665 0 0 1-2.391 2.317l-2.57-2.659-2.564 2.654a1.665 1.665 0 1 1-2.36-2.35l2.517-2.46a8.286 8.286 0 0 1-.454-.126 9.611 9.611 0 0 1-2.44-1.165A2.099 2.099 0 0 1 0 11.638a1.512 1.512 0 0 1 .848-1.377 1.59 1.59 0 0 1 1.665.157 6.335 6.335 0 0 0 7.464 0 1.582 1.582 0 0 1 1.665-.157c.525.257.855.794.846 1.378 0 .704-.355 1.361-.943 1.748z" fill="#FFF"/></svg>