<svg width="20" height="16" xmlns="http://www.w3.org/2000/svg"><path d="M20 1.893a8.292 8.292 0 0 1-2.356.636A4.07 4.07 0 0 0 19.448.295a8.349 8.349 0 0 1-2.607.981A4.12 4.12 0 0 0 13.846 0C11.58 0 9.743 1.81 9.743 4.04c0 .316.036.625.106.92A11.708 11.708 0 0 1 1.393.738 3.964 3.964 0 0 0 .84 2.77c0 1.402.724 2.64 1.824 3.363a4.151 4.151 0 0 1-1.858-.507v.05c0 1.958 1.415 3.59 3.29 3.963a4.215 4.215 0 0 1-1.08.141c-.266 0-.522-.026-.773-.075a4.098 4.098 0 0 0 3.832 2.806A8.312 8.312 0 0 1 .98 14.238a8.85 8.85 0 0 1-.98-.056A11.727 11.727 0 0 0 6.289 16c7.547 0 11.673-6.157 11.673-11.496l-.014-.523A8.126 8.126 0 0 0 20 1.893z" fill="#FFF"/></svg>