<svg width="20" height="12" xmlns="http://www.w3.org/2000/svg"><path d="M17.213 7.197c.663.647 1.363 1.257 1.959 1.97.262.317.511.644.702 1.011.27.523.025 1.098-.444 1.13l-2.913-.002c-.752.063-1.351-.24-1.855-.754-.404-.41-.777-.848-1.165-1.273a2.759 2.759 0 0 0-.525-.466c-.397-.258-.743-.179-.97.236-.231.422-.284.889-.307 1.36-.03.685-.238.866-.927.897-1.473.07-2.871-.153-4.17-.896-1.144-.655-2.032-1.58-2.805-2.627C2.29 5.745 1.136 3.505.101 1.203-.132.682.038.404.611.394a82.167 82.167 0 0 1 2.852 0c.387.005.642.227.792.592.514 1.264 1.143 2.467 1.933 3.583.21.296.425.593.73.802.338.232.595.155.754-.221.101-.239.145-.496.168-.752.075-.88.085-1.757-.047-2.633-.08-.547-.389-.901-.935-1.005C6.58.707 6.621.604 6.756.445 6.99.17 7.211 0 7.65 0h3.293c.518.102.633.335.704.857l.003 3.658c-.006.201.1.8.464.934.292.095.483-.137.658-.322.789-.837 1.351-1.826 1.854-2.85a18.6 18.6 0 0 0 .6-1.385c.138-.346.355-.517.745-.51l3.17.003c.093 0 .188.002.28.017.533.091.68.321.515.843-.26.818-.766 1.5-1.26 2.185-.529.73-1.094 1.437-1.618 2.173-.482.672-.443 1.01.155 1.594z" fill="#4695ED"/></svg>