<svg width="20" height="11" xmlns="http://www.w3.org/2000/svg"><path d="M17.213 6.994c.663.63 1.363 1.222 1.959 1.915.262.308.511.626.702.983.27.508.025 1.067-.444 1.098l-2.913-.002c-.752.061-1.351-.233-1.855-.732-.404-.4-.777-.825-1.165-1.238a2.735 2.735 0 0 0-.525-.453c-.397-.25-.743-.174-.97.23-.231.41-.284.864-.307 1.32-.03.667-.238.843-.927.873-1.473.068-2.871-.149-4.17-.87-1.144-.637-2.032-1.536-2.805-2.554C2.29 5.584 1.136 3.406.101 1.168-.132.664.038.394.611.384A79.747 79.747 0 0 1 3.463.383c.387.005.642.22.792.575A17.037 17.037 0 0 0 6.188 4.44c.21.289.425.577.73.78.338.225.595.15.754-.215.101-.232.145-.482.168-.73.075-.855.085-1.708-.047-2.56-.08-.532-.389-.876-.935-.976C6.58.688 6.621.587 6.756.432 6.99.166 7.211 0 7.65 0h3.293c.518.1.633.326.704.833l.003 3.555c-.006.196.1.778.464.908.292.093.483-.134.658-.313.789-.813 1.351-1.774 1.854-2.77.223-.437.415-.892.6-1.346.138-.337.355-.503.745-.495l3.17.003c.093 0 .188 0 .28.016.533.088.68.312.515.819-.26.795-.766 1.457-1.26 2.123-.529.71-1.094 1.397-1.618 2.112-.482.653-.443.982.155 1.55z" fill="#FFF"/></svg>