<svg width="22" height="27" xmlns="http://www.w3.org/2000/svg"><path d="M18.326 14.318c-.034-3.412 2.783-5.05 2.91-5.13-1.584-2.317-4.05-2.634-4.928-2.67-2.099-.213-4.095 1.235-5.16 1.235-1.062 0-2.705-1.204-4.446-1.173-2.287.034-4.396 1.33-5.574 3.379C-1.248 14.082.52 20.19 2.836 23.536c1.132 1.637 2.481 3.475 4.253 3.41 1.707-.068 2.352-1.104 4.415-1.104s2.643 1.104 4.448 1.07c1.837-.034 3-1.669 4.124-3.31 1.3-1.9 1.835-3.738 1.866-3.833-.04-.018-3.58-1.375-3.616-5.45zM14.933 4.303c.94-1.14 1.576-2.724 1.402-4.303-1.354.055-2.996.902-3.968 2.04-.872 1.01-1.636 2.623-1.431 4.17 1.512.118 3.056-.768 3.997-1.907z" fill="#212121"/></svg>