<svg width="107" height="23" xmlns="http://www.w3.org/2000/svg"><path d="M22.931 4.892A89.975 89.975 0 0 1 47.67.28a87.616 87.616 0 0 1 12.653.399A80.483 80.483 0 0 1 72.78 3.028c8.156 2.214 16.006 5.796 22.68 10.923.297.228.35.652.122.948a.682.682 0 0 1-.846.19c-7.37-3.74-14.924-6.848-22.802-9.007a96.714 96.714 0 0 0-11.987-2.478 88.336 88.336 0 0 0-12.242-.921c-8.202-.07-16.468 1.055-24.338 3.549-7.859 2.488-15.36 6.263-21.843 11.37a.672.672 0 1 1-.834-1.055A79.487 79.487 0 0 1 22.93 4.891zm75.905 4.109a34.878 34.878 0 0 0 2.155 3.498 35.354 35.354 0 0 0 2.55 3.213 46.256 46.256 0 0 0 2.874 2.902 1.223 1.223 0 1 1-.645 2.097l-.196.032-3.656.582c-1.217.188-2.435.351-3.653.522a42.997 42.997 0 0 1-3.68.345c-1.239.053-2.484.073-3.77-.076a.701.701 0 0 1-.619-.78.715.715 0 0 1 .374-.542c1.159-.608 2.363-1.013 3.58-1.354a27.832 27.832 0 0 1 3.701-.74 57.953 57.953 0 0 1 3.753-.372 63.55 63.55 0 0 1 3.77-.12l-.84 2.128a50.65 50.65 0 0 1-2.492-3.47 78.722 78.722 0 0 1-4.312-7.28 111.229 111.229 0 0 1-1.858-3.79.676.676 0 0 1 1.222-.578c.007.016.016.035.021.052A30.229 30.229 0 0 0 98.835 9z" fill="#F65500" fill-rule="evenodd"/></svg>