<svg width="20" height="20" xmlns="http://www.w3.org/2000/svg"><path d="M19.219 13.75c.431 0 .781-.35.781-.781V4.688a3.129 3.129 0 0 0-3.125-3.125h-1.016V.78a.781.781 0 1 0-1.562 0v.781h-3.555v-.78a.781.781 0 1 0-1.562 0v.78H5.664v-.78a.781.781 0 1 0-1.562 0v.78h-.977A3.129 3.129 0 0 0 0 4.688v12.188A3.129 3.129 0 0 0 3.125 20h13.75A3.129 3.129 0 0 0 20 16.875a.781.781 0 1 0-1.563 0c0 .862-.7 1.563-1.562 1.563h-2.969V13.75h5.313zm-.782-1.563h-4.53V7.5h4.53v4.688zm-12.343 6.25H3.125c-.862 0-1.563-.7-1.563-1.562V13.75h4.532v4.688zm0-6.25H1.562V7.5h4.532v4.688zm6.25 6.25H7.656V13.75h4.688v4.688zm0-6.25H7.656V7.5h4.688v4.688zM1.563 5.938v-1.25c0-.861.7-1.562 1.562-1.562h.977v.781a.781.781 0 1 0 1.562 0v-.781H9.18v.781a.781.781 0 1 0 1.562 0v-.781h3.555v.781a.781.781 0 1 0 1.562 0v-.781h1.016c.862 0 1.563.7 1.563 1.563v1.25H1.563z" fill="#212121"/></svg>