<svg width="177" height="60" xmlns="http://www.w3.org/2000/svg"><defs><linearGradient x1="50%" y1="0%" x2="50%" y2="100%" id="a"><stop stop-color="#1E79AF" offset="0%"/><stop stop-color="#63FFD3" offset="100%"/></linearGradient><linearGradient x1="84.718%" y1="14.446%" x2="5.244%" y2="96.562%" id="b"><stop stop-color="#DC4057" offset="0%"/><stop stop-color="#9E36BB" offset="100%"/></linearGradient><linearGradient x1="50%" y1="0%" x2="50%" y2="97.826%" id="c"><stop stop-color="#FF9676" offset="0%"/><stop stop-color="#FFD074" offset="100%"/></linearGradient><linearGradient x1="17.444%" y1="0%" x2="100%" y2="100%" id="d"><stop stop-color="#51C6AD" offset="0%"/><stop stop-color="#D5FFA1" offset="100%"/></linearGradient></defs><g fill="none" fill-rule="evenodd"><rect fill="#000" width="177" height="60" rx="12"/><path d="M1.107-.18C.61-.023.286.485.286 1.255l.003 24.218c0 .76.313 1.262.798 1.429l13.45-13.552L1.107-.18" fill="url(#a)" transform="translate(13.227 24.66)"/><path d="M1.087 26.902c.348.12.786.063 1.262-.2l16.413-9.094-4.225-4.258-13.45 13.552" fill="url(#b)" transform="translate(13.227 24.66)"/><path d="M18.765 17.608l5.596-3.1c1.135-.632 1.135-1.658 0-2.288l-5.617-3.112-4.207 4.24 4.228 4.26" fill="url(#c)" transform="translate(13.227 24.66)"/><path d="M18.743 9.108L2.35.026C1.884-.23 1.455-.29 1.11-.18l13.428 13.528 4.206-4.24" fill="url(#d)" transform="translate(13.227 24.66)"/><path d="M61.346 43.934l-3.476.802c-1.408.223-2.673.42-4.012.42-6.705 0-9.26-4.972-9.26-8.864 0-4.752 3.62-9.159 9.82-9.159 1.31 0 2.572.195 3.722.51 1.822.516 2.674 1.152 3.206 1.524l-2.019 1.932-.851.192.607-.974c-.822-.81-2.334-2.303-5.202-2.303-3.835 0-6.728 2.937-6.728 7.225 0 4.606 3.303 8.938 8.601 8.938 1.557 0 2.358-.315 3.086-.61V39.62l-3.67.2 1.945-1.053h5.151l-.63.61c-.17.146-.193.195-.24.39-.026.223-.05.933-.05 1.182v2.986zm7.972.906c-4.122 0-6.324-3.233-6.324-6.161 0-3.421 2.773-6.348 6.715-6.348 3.81 0 6.194 3.007 6.194 6.164 0 3.083-2.356 6.345-6.585 6.345zm3.243-2.113c.622-.836.778-1.88.778-2.897 0-2.3-1.091-6.689-4.304-6.689-.858 0-1.71.337-2.333.887-1.014.914-1.194 2.063-1.194 3.19 0 2.581 1.272 6.838 4.41 6.838 1.011 0 2.044-.495 2.643-1.33zm10.556 2.113c-4.122 0-6.327-3.233-6.327-6.161 0-3.421 2.772-6.348 6.715-6.348 3.812 0 6.2 3.007 6.2 6.164 0 3.083-2.36 6.345-6.588 6.345zm3.242-2.113c.627-.836.78-1.88.78-2.897 0-2.3-1.089-6.689-4.304-6.689a3.6 3.6 0 0 0-2.338.887c-1.012.914-1.193 2.063-1.193 3.19 0 2.581 1.266 6.838 4.409 6.838 1.014 0 2.049-.495 2.646-1.33zm12.833-9.114c.595.493 1.838 1.54 1.838 3.525 0 1.934-1.083 2.846-2.175 3.71-.335.339-.726.708-.726 1.277 0 .579.391.892.673 1.126l.937.728c1.139.969 2.177 1.857 2.177 3.66 0 2.458-2.36 4.936-6.82 4.936-3.758 0-5.574-1.803-5.574-3.736 0-.941.464-2.273 1.998-3.186 1.607-.99 3.785-1.122 4.951-1.2-.364-.474-.78-.97-.78-1.78 0-.442.132-.706.26-1.018-.283.027-.57.055-.829.055-2.75 0-4.304-2.067-4.304-4.103 0-1.202.544-2.535 1.66-3.501 1.48-1.226 3.242-1.438 4.642-1.438h5.344l-1.662.945h-1.61zM97.355 45.21c-.213-.028-.34-.028-.597-.028-.235 0-1.636.051-2.72.418-.575.212-2.234.836-2.234 2.692 0 1.852 1.791 3.187 4.562 3.187 2.49 0 3.81-1.202 3.81-2.82 0-1.333-.854-2.036-2.821-3.449zm.745-4.964c.6-.603.652-1.436.652-1.909 0-1.878-1.112-4.805-3.267-4.805-.673 0-1.401.34-1.814.866-.44.544-.57 1.25-.57 1.929 0 1.75 1.012 4.651 3.24 4.651.65 0 1.349-.318 1.76-.732zm8.178 2.3c0 1.015.18 1.173 1.032 1.253.444.053.887.076 1.325.128l-.959.576h-4.57c.6-.784.703-.862.703-1.384v-.583l-.01-15.532h-2.018l1.943-.943h3.708c-.804.47-1.045.755-1.147 1.67l-.007 14.815zm12.745.202l-1.24 1.18c-.287.158-.572.342-.856.473-.861.394-1.737.493-2.516.493-.828 0-2.126-.054-3.451-1.02-1.84-1.305-2.645-3.55-2.645-5.506 0-4.05 3.273-6.037 5.942-6.037.933 0 1.89.235 2.67.731 1.295.864 1.63 1.985 1.816 2.586l-6.095 2.481-1.996.157c.646 3.32 2.876 5.252 5.34 5.252 1.23 0 2.144-.405 2.983-.822 0 0 .168-.088.048.032zm-3.677-6.605c.494-.181.752-.338.752-.702 0-1.043-1.172-2.248-2.57-2.248-1.036 0-2.98.812-2.98 3.635 0 .44.052.91.078 1.379l4.72-2.064zm11.15 6.717v6.654h-1.31V32.583h1.31v1.928c.855-1.246 2.416-2.234 4.23-2.234 3.252 0 5.443 2.485 5.443 6.42 0 3.909-2.191 6.447-5.443 6.447-1.712 0-3.246-.89-4.23-2.284zm8.263-4.163c0-2.965-1.534-5.227-4.255-5.227-1.69 0-3.305 1.337-4.007 2.504v5.42c.702 1.169 2.318 2.555 4.007 2.555 2.721 0 4.255-2.281 4.255-5.252zm3.2-10.79h1.311V44.84h-1.31V27.908zm12.197 16.895c-.087-.425-.153-.8-.202-1.112a7.517 7.517 0 0 1-.063-.955c-.45.665-1.086 1.218-1.9 1.654-.814.439-1.588.654-2.65.654-1.277 0-2.269-.317-2.976-.96-.706-.64-1.06-1.51-1.06-2.61 0-1.099.513-1.99 1.538-2.673 1.025-.685 2.35-1.025 3.99-1.025h3.058v-1.523c0-.877-.296-1.567-.889-2.067-.594-.5-1.429-.754-2.51-.754-.99 0-1.792.231-2.403.682-.605.46-.91 1.03-.91 1.716h-1.342l-.028-.066c-.048-.925.372-1.737 1.265-2.439.89-.7 2.056-1.053 3.49-1.053 1.43 0 2.587.347 3.46 1.04.87.684 1.308 1.674 1.308 2.969v6.046c0 .434.02.854.074 1.262.056.41.144.819.262 1.214h-1.512zm-4.654-.963c1.115 0 1.915-.25 2.733-.747.813-.493 1.367-1.136 1.656-1.915v-2.353h-3.073c-1.174 0-2.146.261-2.91.79-.767.526-1.155 1.163-1.155 1.904 0 .699.246 1.258.735 1.681.49.428 1.16.64 2.014.64zm8.485 4.58c.28.126.76.204 1.063.204.802 0 1.36-.331 1.862-1.498l.957-2.184-5.166-12.358h1.463l4.431 10.709 4.39-10.71h1.483l-6.301 14.952c-.654 1.54-1.683 2.282-3.096 2.282-.424 0-.983-.076-1.31-.178l.224-1.219zM44.5 13.948c0-2.63 1.956-4.321 4.388-4.321 1.63 0 2.694.777 3.359 1.728l-1.191.69a2.697 2.697 0 0 0-2.168-1.115c-1.654 0-2.883 1.252-2.883 3.018 0 1.74 1.23 3.017 2.883 3.017.853 0 1.604-.388 1.98-.751v-1.29h-2.506v-1.29h3.96v3.118a4.517 4.517 0 0 1-3.434 1.528c-2.432 0-4.387-1.715-4.387-4.332zm9.635 4.17V9.764h5.728v1.29H55.6v2.153h4.174v1.29H55.6v2.33h4.262v1.29h-5.728zm9.785 0v-7.063h-2.53v-1.29h6.53v1.29h-2.532v7.062H63.92zm9.095-8.353h1.465v8.352h-1.465V9.765zm5.55 8.352v-7.062h-2.532v-1.29h6.53v1.29H80.03v7.062h-1.467zm8.73-4.17c0-2.492 1.767-4.32 4.275-4.32 2.493 0 4.273 1.828 4.273 4.32s-1.78 4.32-4.273 4.32c-2.508 0-4.275-1.828-4.275-4.32zm7.044 0c0-1.728-1.09-3.017-2.77-3.017-1.692 0-2.77 1.29-2.77 3.018 0 1.714 1.078 3.017 2.77 3.017 1.68 0 2.77-1.303 2.77-3.017zm9.044 4.17l-4.362-5.973v5.973h-1.465V9.765h1.504l4.273 5.785V9.765h1.467v8.352h-1.417z" fill="#FFF"/></g></svg>