<svg width="11" height="14" xmlns="http://www.w3.org/2000/svg"><path d="M9.57 10.007L7.34 8.893A.614.614 0 0 1 7 8.341v-.789a5.34 5.34 0 0 0 .857-1.575.926.926 0 0 0 .543-.844V4.2a.93.93 0 0 0-.233-.613v-1.24c.013-.129.064-.893-.488-1.523C7.199.277 6.422 0 5.367 0S3.534.277 3.055.824c-.553.63-.501 1.394-.488 1.522v1.241a.93.93 0 0 0-.234.613v.933c0 .284.13.55.35.726.213.846.66 1.484.817 1.688v.773a.617.617 0 0 1-.321.54L1.097 9.997A2.104 2.104 0 0 0 0 11.844v.756C0 13.707 3.51 14 5.367 14c1.856 0 5.366-.293 5.366-1.4v-.71c0-.802-.446-1.524-1.163-1.883z" fill="#FFF" opacity=".25"/></svg>